<?xml version="1.0" encoding="UTF-8"?><svg xmlns="http://www.w3.org/2000/svg" xmlns:xlink="http://www.w3.org/1999/xlink" contentScriptType="text/ecmascript" width="30" zoomAndPan="magnify" contentStyleType="text/css" viewBox="0 0 30 30.000001" height="30.000001" preserveAspectRatio="xMidYMid meet" version="1.0"><defs><clipPath id="clip-0"><path d="M 1 0 L 29.210938 0 L 29.210938 29.03125 L 1 29.03125 Z M 1 0 " clip-rule="nonzero"/></clipPath></defs><path fill="rgb(100%, 87.059021%, 34.899902%)" d="M 22.632812 21.644531 L 21.914062 18.078125 L 25.042969 18.769531 L 23 16.054688 L 26.789062 14.546875 L 22.890625 12.21875 L 25.570312 10.21875 L 21.957031 10.21875 L 24.246094 7.183594 L 20.667969 7.894531 L 21.734375 2.9375 L 17.828125 6.472656 L 16.328125 2.734375 L 13.945312 7.484375 L 11.582031 3.566406 L 10.480469 7.226562 L 6.363281 4.496094 L 8.152344 8.777344 L 4.828125 8.042969 L 6.855469 10.734375 L 3.457031 12.242188 L 7.199219 14.476562 L 5.78125 16.59375 L 8.988281 16.59375 L 4.453125 24.925781 L 12.054688 18.734375 L 13.582031 22.535156 L 16.007812 18.507812 L 18.394531 23.253906 L 19.871094 19.582031 Z M 22.632812 21.644531 " fill-opacity="1" fill-rule="nonzero"/><g clip-path="url(#clip-0)"><path fill="rgb(100%, 56.858826%, 30.198669%)" d="M 24.632812 16.511719 L 29.105469 14.730469 L 24.738281 12.125 L 28.667969 9.191406 L 24.023438 9.191406 L 26.691406 5.648438 L 22.007812 6.578125 L 23.417969 0.0234375 L 18.238281 4.714844 L 16.433594 0.226562 L 13.863281 5.347656 L 11.265625 1.039062 L 9.890625 5.601562 L 4.097656 1.757812 L 6.433594 7.34375 L 2.324219 6.433594 L 5.253906 10.320312 L 1.21875 12.105469 L 5.738281 14.800781 L 3.851562 17.621094 L 7.253906 17.621094 L 1.046875 29.027344 L 11.621094 20.414062 L 13.394531 24.839844 L 15.925781 20.640625 L 18.496094 25.761719 L 20.328125 21.210938 L 24.171875 24.082031 L 23.238281 19.425781 L 27.542969 20.375 Z M 16.007812 18.507812 L 13.582031 22.535156 L 12.054688 18.734375 L 4.453125 24.925781 L 8.984375 16.59375 L 5.78125 16.59375 L 7.199219 14.476562 L 3.457031 12.238281 L 6.855469 10.734375 L 4.828125 8.042969 L 8.152344 8.777344 L 6.363281 4.496094 L 10.480469 7.226562 L 11.582031 3.566406 L 13.945312 7.480469 L 16.328125 2.734375 L 17.828125 6.472656 L 21.734375 2.9375 L 20.667969 7.894531 L 24.246094 7.183594 L 21.957031 10.21875 L 25.570312 10.21875 L 22.890625 12.21875 L 26.789062 14.546875 L 23 16.054688 L 25.042969 18.769531 L 21.914062 18.078125 L 22.632812 21.644531 L 19.871094 19.582031 L 18.394531 23.253906 Z M 16.007812 18.507812 " fill-opacity="1" fill-rule="nonzero"/></g></svg>